HIERARCHY
ROOT Hips
{
	OFFSET 0.000000 0.000000 0.000000
	CHANNELS 6 Xposition Yposition Zposition Xrotation Yrotation Zrotation
	JOINT LeftUpLeg_virtual
	{
		OFFSET 0.000000 0.000000 0.000000
		CHANNELS 3 Xrotation Yrotation Zrotation
		JOINT LeftUpLeg
		{
			OFFSET 15.427100 -6.655098 0.678600
			CHANNELS 3 Xrotation Yrotation Zrotation
			JOINT LeftLeg
			{
				OFFSET 4.081073 -39.591068 13.024000
				CHANNELS 3 Xrotation Yrotation Zrotation
				JOINT LeftFoot
				{
					OFFSET -4.081074 -37.707932 -15.979700
					CHANNELS 3 Xrotation Yrotation Zrotation
					JOINT LeftToeBase
					{
						OFFSET 5.346399 -15.068900 20.645000
						CHANNELS 3 Xrotation Yrotation Zrotation
						JOINT LeftToe_End
						{
							OFFSET 2.754700 0.931300 11.300900
							CHANNELS 3 Xrotation Yrotation Zrotation
							End Site
							{
								OFFSET 0 0 0
							}
						}
					}
				}
			}
		}
	}
	JOINT RightUpLeg_virtual
	{
		OFFSET 0.000000 0.000000 0.000000
		CHANNELS 3 Xrotation Yrotation Zrotation
		JOINT RightUpLeg
		{
			OFFSET -15.569500 -6.655098 0.678600
			CHANNELS 3 Xrotation Yrotation Zrotation
			JOINT RightLeg
			{
				OFFSET -4.081825 -39.591045 13.023800
				CHANNELS 3 Xrotation Yrotation Zrotation
				JOINT RightFoot
				{
					OFFSET 4.081824 -37.707954 -15.979600
					CHANNELS 3 Xrotation Yrotation Zrotation
					JOINT RightToeBase
					{
						OFFSET -5.346400 -15.068900 20.645000
						CHANNELS 3 Xrotation Yrotation Zrotation
						JOINT RightToe_End
						{
							OFFSET -2.754700 0.931300 11.300900
							CHANNELS 3 Xrotation Yrotation Zrotation
							End Site
							{
								OFFSET 0 0 0
							}
						}
					}
				}
			}
		}
	}
	JOINT Spine_virtual
	{
		OFFSET 0.000000 0.000000 0.000000
		CHANNELS 3 Xrotation Yrotation Zrotation
		JOINT Spine
		{
			OFFSET -0.279200 12.230698 -2.892100
			CHANNELS 3 Xrotation Yrotation Zrotation
			JOINT Spine1
			{
				OFFSET -0.232667 10.192268 -1.242267
				CHANNELS 3 Xrotation Yrotation Zrotation
				JOINT Spine1_split
				{
					OFFSET -0.232667 10.192268 -1.242267
					CHANNELS 3 Xrotation Yrotation Zrotation
					JOINT Spine2
					{
						OFFSET -0.232667 10.192268 -1.242267
						CHANNELS 3 Xrotation Yrotation Zrotation
						JOINT Neck_virtual
						{
							OFFSET 0.000000 0.000000 0.000000
							CHANNELS 3 Xrotation Yrotation Zrotation
							JOINT Neck
							{
								OFFSET -0.418800 17.814194 8.416900
								CHANNELS 3 Xrotation Yrotation Zrotation
								JOINT Head
								{
									OFFSET 0.000000 7.031097 3.806800
									CHANNELS 3 Xrotation Yrotation Zrotation
									JOINT HeadTop_End
									{
										OFFSET 0.000000 24.646606 12.978600
										CHANNELS 3 Xrotation Yrotation Zrotation
										End Site
										{
											OFFSET 0 0 0
										}
									}
								}
							}
						}
						JOINT LeftShoulder_virtual
						{
							OFFSET 0.000000 0.000000 0.000000
							CHANNELS 3 Xrotation Yrotation Zrotation
							JOINT LeftShoulder
							{
								OFFSET 8.476499 7.247704 -3.868750
								CHANNELS 3 Xrotation Yrotation Zrotation
								JOINT LeftShoulder_split
								{
									OFFSET 8.476499 7.247704 -3.868750
									CHANNELS 3 Xrotation Yrotation Zrotation
									JOINT LeftArm
									{
										OFFSET 9.308998 -2.777710 0.208600
										CHANNELS 3 Xrotation Yrotation Zrotation
										JOINT LeftForeArm
										{
											OFFSET 29.972298 0.000000 0.000000
											CHANNELS 3 Xrotation Yrotation Zrotation
											JOINT LeftHand
											{
												OFFSET 26.026505 0.000000 0.000000
												CHANNELS 3 Xrotation Yrotation Zrotation
												End Site
												{
													OFFSET 0 0 0
												}
											}
										}
									}
								}
							}
						}
						JOINT RightShoulder_virtual
						{
							OFFSET 0.000000 0.000000 0.000000
							CHANNELS 3 Xrotation Yrotation Zrotation
							JOINT RightShoulder
							{
								OFFSET -7.570500 7.247704 -3.868750
								CHANNELS 3 Xrotation Yrotation Zrotation
								JOINT RightShoulder_split
								{
									OFFSET -7.570500 7.247704 -3.868750
									CHANNELS 3 Xrotation Yrotation Zrotation
									JOINT RightArm
									{
										OFFSET -9.308998 -2.777710 0.208500
										CHANNELS 3 Xrotation Yrotation Zrotation
										JOINT RightForeArm
										{
											OFFSET -29.972300 0.000000 0.000000
											CHANNELS 3 Xrotation Yrotation Zrotation
											JOINT RightHand
											{
												OFFSET -26.026505 0.000000 0.000000
												CHANNELS 3 Xrotation Yrotation Zrotation
												End Site
												{
													OFFSET 0 0 0
												}
											}
										}
									}
								}
							}
						}
					}
				}
			}
		}
	}
}
MOTION
Frames: 11
Frame Time: 0.03333333
-1.764391 87.477066 1.346485 0.000000 0.000000 0.000000 2.053542 2.052628 -3.438045 -25.190202 5.624471 13.750857 43.644362 -1.013012 -0.011372 -2.958166 -1.655272 -3.325727 0.677468 -0.531039 -1.926061 0.000000 0.000000 0.000000 3.896722 3.350969 -3.083345 -12.311071 -3.699190 5.680496 23.814136 1.980510 -1.244254 -15.639615 3.084649 1.448898 0.977355 0.265480 1.107064 0.000000 0.000000 0.000000 0.939011 0.299004 -3.082293 6.190432 -0.366864 3.635410 2.899319 -1.460524 1.771588 0.894438 -0.399830 0.793214 0.000000 0.000000 0.000000 2.772250 -1.516751 1.414636 -2.215256 4.760392 -0.982836 -1.208074 0.976724 -0.950013 0.000000 0.000000 0.000000 2.899489 -1.785650 1.313831 1.159070 -10.095371 -15.021307 1.350113 2.843615 -3.020905 13.059603 -23.824426 -46.699899 -0.797055 -22.070481 -2.268368 0.000000 0.000000 0.000000 1.631428 -1.427285 2.567746 0.791394 3.063372 16.957488 0.835911 0.307820 -2.839768 7.331897 23.266237 47.565762 -0.422287 34.241671 1.694951 0.000000 0.000000 0.000000 
-0.280835 87.325829 2.894482 0.000000 0.000000 0.000000 2.174524 1.855661 -2.981785 -24.524300 5.119398 14.443832 42.012371 -0.309278 -0.381402 -3.540029 -1.295488 -2.230305 1.086132 -0.290015 -2.338058 0.000000 0.000000 0.000000 4.127886 3.346238 -2.634349 -12.058153 -3.249886 4.490551 24.085702 2.123103 -1.218391 -15.929017 2.813067 1.142734 1.232951 0.225700 1.082718 0.000000 0.000000 0.000000 1.109998 0.529665 -2.994157 6.203278 0.101447 3.461319 3.144859 -1.229994 1.631169 0.685283 0.534618 0.701020 0.000000 0.000000 0.000000 2.828878 -1.286673 1.235627 -2.142861 4.245387 -0.437602 -1.604036 0.805284 -0.984822 0.000000 0.000000 0.000000 3.143885 -1.486026 1.241279 1.077549 -9.615483 -15.139862 0.568660 3.710448 -3.653877 13.489818 -22.148541 -47.037197 -0.853345 -21.268307 -2.321485 0.000000 0.000000 0.000000 1.706117 -1.208049 2.314392 0.566065 3.089841 16.585050 1.413586 0.908212 -3.169159 6.618252 23.915405 47.385049 -0.341802 37.663121 1.579581 0.000000 0.000000 0.000000 
1.972675 87.623047 5.158234 0.000000 0.000000 0.000000 2.182975 1.859510 -2.193638 -23.710117 4.627608 16.068715 38.620533 1.161523 -0.551828 -3.006148 -0.041228 -2.811584 0.928477 0.011120 -2.795621 0.000000 0.000000 0.000000 4.034586 3.682424 -1.955366 -10.587899 -2.722778 2.451021 23.861990 2.608528 -1.360047 -16.207322 2.363726 1.504857 0.981852 0.257245 0.978966 0.000000 0.000000 0.000000 1.208211 1.144813 -2.523106 6.427630 1.164320 3.006591 3.376146 -0.278173 1.301469 0.722056 0.825010 0.746540 0.000000 0.000000 0.000000 2.918622 -0.339676 0.817851 -1.888965 3.453048 -0.158952 -2.248622 -0.738727 -0.874339 0.000000 0.000000 0.000000 3.288033 -0.482866 0.926968 0.929434 -9.564027 -15.605261 -0.347429 3.971341 -3.999709 12.804137 -19.342846 -47.559946 -0.963279 -20.868210 -2.317392 0.000000 0.000000 0.000000 1.826055 -0.244927 1.832221 0.303168 3.785044 16.232307 2.153157 0.755285 -3.254283 7.174658 24.149858 46.447281 -0.179388 43.955413 1.273823 0.000000 0.000000 0.000000 
4.699478 88.180878 7.714531 0.000000 0.000000 0.000000 2.031880 2.045343 -1.306536 -23.022425 4.240753 18.320637 33.966818 2.956623 -0.444323 -1.012830 1.399356 -5.384490 0.111640 0.313955 -2.989653 0.000000 0.000000 0.000000 3.627174 4.037122 -1.207863 -8.017659 -2.302105 -0.183577 22.945025 3.439819 -1.524124 -16.389211 1.946897 2.481087 0.497983 0.344328 0.813360 0.000000 0.000000 0.000000 1.104026 1.729478 -1.827862 6.749412 2.654106 2.421290 3.610449 1.195178 0.851606 1.098498 0.395472 0.795494 0.000000 0.000000 0.000000 3.068662 1.171809 0.273579 -1.557746 2.511975 -0.131810 -3.045340 -3.443135 -0.650476 0.000000 0.000000 0.000000 3.394473 1.059454 0.450069 0.732859 -9.976595 -16.389947 -0.937079 3.661687 -4.168933 11.159124 -15.781850 -48.130745 -1.045536 -20.868810 -2.231481 0.000000 0.000000 0.000000 2.000433 1.287584 1.224811 0.006879 5.078314 15.914990 2.786893 0.033500 -2.980087 8.712693 23.635069 44.923209 0.133464 51.705072 0.724101 0.000000 0.000000 0.000000 
7.605128 88.823227 10.428791 0.000000 0.000000 0.000000 1.673918 2.132823 -0.536492 -22.745181 4.022780 20.887617 29.160878 4.597510 -0.111746 2.363419 2.125192 -9.797153 -0.917360 0.522368 -2.679973 0.000000 0.000000 0.000000 3.014401 4.201732 -0.591901 -4.728316 -2.266112 -3.069333 21.317469 4.514894 -1.542170 -16.506581 1.732242 3.827384 0.273311 0.460952 0.644481 0.000000 0.000000 0.000000 0.991473 2.174967 -1.172042 7.091981 4.354491 1.867321 3.847744 2.965240 0.358780 1.427856 -0.166038 0.880552 0.000000 0.000000 0.000000 3.280401 3.005819 -0.266849 -1.291157 1.521012 -0.315791 -3.847617 -6.836641 -0.360375 0.000000 0.000000 0.000000 3.483851 2.912723 -0.074070 0.501476 -10.773829 -17.473485 -0.996077 3.186334 -4.209232 8.922910 -11.728729 -48.701807 -1.011087 -21.148791 -2.038701 0.000000 0.000000 0.000000 2.211244 3.145611 0.621686 -0.289531 6.873228 15.663782 3.195211 -0.656510 -2.690187 10.455397 22.261349 43.114439 0.575492 59.668041 -0.016901 0.000000 0.000000 0.000000 
10.415161 89.322159 13.130024 0.000000 0.000000 0.000000 1.089633 1.862009 -0.082816 -22.755704 3.923005 23.234150 24.961030 5.862571 0.252495 6.289402 1.466318 -15.067911 -1.819397 0.565078 -1.824087 0.000000 0.000000 0.000000 2.350298 4.224079 -0.284487 -1.209821 -2.647187 -5.833183 19.201849 5.684178 -1.292742 -16.774706 1.810637 5.386376 0.328931 0.549826 0.523692 0.000000 0.000000 0.000000 0.755482 2.116893 -0.767565 7.449924 6.019189 1.460538 4.069642 4.815381 -0.097747 1.709451 -0.799783 0.806540 0.000000 0.000000 0.000000 3.499544 4.927488 -0.707105 -1.179790 0.592093 -0.588314 -4.407110 -10.406650 -0.017141 0.000000 0.000000 0.000000 3.597991 4.842698 -0.554227 0.248557 -11.803275 -18.676413 -0.694647 2.791439 -4.249163 6.463421 -7.596787 -49.264259 -0.849105 -21.605673 -1.737347 0.000000 0.000000 0.000000 2.458721 5.084065 0.097634 -0.569246 9.008032 15.473105 3.196479 -0.850568 -2.541510 11.633398 19.987726 41.423373 1.041990 66.803833 -0.808507 0.000000 0.000000 0.000000 
13.034941 89.524284 15.616005 0.000000 0.000000 0.000000 0.352969 1.447796 -0.046830 -23.014812 3.911868 25.188908 21.870739 6.667769 0.535279 9.418637 -0.635260 -20.027699 -2.433708 0.475578 -0.518458 0.000000 0.000000 0.000000 1.798989 4.008444 -0.344159 2.248894 -3.275461 -8.233267 16.955902 6.904948 -0.816984 -17.324428 2.224093 7.089574 0.059997 0.570935 0.428921 0.000000 0.000000 0.000000 0.443676 1.639411 -0.735102 7.755775 7.545982 1.282041 4.268621 6.615959 -0.473420 1.783190 -1.223662 0.676402 0.000000 0.000000 0.000000 3.711696 6.768037 -1.020630 -1.249798 -0.121646 -0.927230 -4.609569 -13.778742 0.387785 0.000000 0.000000 0.000000 3.765429 6.691964 -0.932597 -0.004040 -12.885545 -19.869562 -0.301795 2.431748 -4.484414 4.123592 -3.630365 -49.777053 -0.517658 -22.201982 -1.316324 0.000000 0.000000 0.000000 2.672596 6.920104 -0.329345 -0.864725 11.212428 15.356733 2.921529 -0.384692 -2.495181 11.763988 17.035035 40.106277 1.496230 72.626774 -1.557261 0.000000 0.000000 0.000000 
15.342494 89.401978 17.732964 0.000000 0.000000 0.000000 -0.343989 0.803333 -0.402925 -23.323745 3.954159 26.647049 20.154194 7.175609 0.672724 10.709967 -3.555097 -23.692251 -2.643614 0.283808 0.914694 0.000000 0.000000 0.000000 1.286352 3.450521 -0.736214 5.431880 -3.921760 -10.054566 14.966206 8.078475 -0.230348 -18.382515 2.872484 8.747029 -0.635752 0.513990 0.369287 0.000000 0.000000 0.000000 0.122924 0.837417 -1.104268 8.039382 8.840596 1.349043 4.424066 8.303591 -0.774097 1.534149 -1.414237 0.642122 0.000000 0.000000 0.000000 3.881423 8.431645 -1.232070 -1.417609 -0.565118 -1.261935 -4.472922 -16.535424 0.848532 0.000000 0.000000 0.000000 3.976557 8.382491 -1.206775 -0.243861 -13.936709 -21.006254 0.117016 2.176667 -4.890306 2.113480 -0.074317 -50.222559 -0.084786 -23.010595 -0.824748 0.000000 0.000000 0.000000 2.857631 8.577714 -0.674636 -1.158216 13.301052 15.356470 2.518043 0.553243 -2.488084 10.852087 13.734794 39.105439 1.806781 76.940121 -2.057863 0.000000 0.000000 0.000000 
17.323570 88.929520 19.654455 0.000000 0.000000 0.000000 -0.816306 -0.219093 -1.033562 -23.417372 3.863938 27.590339 19.818197 7.572057 0.637258 10.059445 -6.416477 -25.505431 -2.633902 0.060454 2.000617 0.000000 0.000000 0.000000 0.856313 2.612722 -1.382753 8.015518 -4.364941 -11.284103 13.706826 9.123146 0.268516 -20.087796 3.605402 10.080445 -1.412055 0.399253 0.348245 0.000000 0.000000 0.000000 -0.223834 -0.172011 -1.740147 8.323561 9.899794 1.563788 4.539943 9.841448 -1.026961 1.398284 -1.694621 0.612903 0.000000 0.000000 0.000000 3.984068 9.913541 -1.395040 -1.593000 -0.738605 -1.500970 -4.029867 -18.490994 1.322819 0.000000 0.000000 0.000000 4.182025 9.905472 -1.436304 -0.491370 -14.956376 -22.058987 0.567885 2.132714 -5.299145 0.442930 3.084386 -50.533704 0.378989 -24.073680 -0.341074 0.000000 0.000000 0.000000 3.043861 10.058144 -0.987766 -1.464241 15.181388 15.527984 1.919729 1.678167 -2.447463 9.045700 10.343700 38.304575 1.660045 79.573131 -1.995342 0.000000 0.000000 0.000000 
19.011385 88.155861 21.238953 0.000000 0.000000 0.000000 -0.993413 -1.464062 -1.824555 -23.420338 3.518198 28.254421 20.927399 7.991944 0.461375 7.889735 -8.499997 -25.636352 -2.380394 -0.091099 2.410110 0.000000 0.000000 0.000000 0.522434 1.684069 -2.156929 9.912061 -4.661036 -11.987173 13.319328 9.998477 0.496216 -22.476850 4.309863 10.885672 -1.953522 0.264327 0.352305 0.000000 0.000000 0.000000 -0.482220 -1.362253 -2.525480 8.650284 10.846273 1.823536 4.631080 11.274241 -1.273311 1.197636 -1.933558 0.563838 0.000000 0.000000 0.000000 4.062895 11.290774 -1.569784 -1.679421 -0.761547 -1.642787 -3.358707 -19.606560 1.710088 0.000000 0.000000 0.000000 4.355102 11.322609 -1.668876 -0.789418 -15.968830 -23.130647 1.129940 2.131750 -5.402899 -0.979871 5.978929 -50.571759 0.806057 -25.426988 0.041715 0.000000 0.000000 0.000000 3.206019 11.425683 -1.283930 -1.823255 16.856902 15.883123 1.201512 2.660101 -2.491646 6.661327 7.133603 37.393653 0.782271 80.614305 -1.160466 0.000000 0.000000 0.000000 
20.460447 87.295197 22.616266 0.000000 0.000000 0.000000 -0.840703 -3.000480 -2.608830 -23.150559 2.752202 28.745674 23.025024 8.536135 0.177838 5.011396 -9.488531 -24.342415 -1.872370 -0.159303 2.013275 0.000000 0.000000 0.000000 0.366094 0.775384 -2.939020 11.123028 -4.922406 -12.341157 13.771307 10.720205 0.421229 -25.160424 4.970672 11.184370 -2.094640 0.160538 0.374529 0.000000 0.000000 0.000000 -0.629206 -2.882521 -3.376272 9.082017 11.761699 2.034739 4.702580 12.655216 -1.527512 0.928457 -2.253551 0.655546 0.000000 0.000000 0.000000 4.137204 12.618765 -1.788149 -1.657247 -0.712167 -1.657399 -2.527720 -19.918625 1.928102 0.000000 0.000000 0.000000 4.513817 12.687444 -1.951270 -1.151152 -16.983803 -24.214824 1.603315 2.194841 -5.258188 -2.312110 8.624328 -50.263082 1.076705 -26.979338 0.247380 0.000000 0.000000 0.000000 3.382802 12.742364 -1.577307 -2.219220 18.379399 16.338436 0.388659 3.426966 -2.606251 3.974123 4.258112 36.348901 -0.617094 80.413552 0.167971 0.000000 0.000000 0.000000 
